<svg width="53" height="12" viewBox="0 0 53 12" fill="none" xmlns="http://www.w3.org/2000/svg">
<g clip-path="url(#clip0_75_842)">
<path d="M15.966 12C15.3287 12 14.7238 11.8889 14.1513 11.6667C13.5788 11.4333 13.0711 11.0778 12.6283 10.6C12.1854 10.1111 11.8343 9.49444 11.5751 8.75001C11.3158 8.00554 11.1862 7.11669 11.1862 6.08331V5.75001C11.1862 4.74999 11.3158 3.88889 11.5751 3.16667C11.8343 2.44444 12.1854 1.85 12.6283 1.38333C13.0711 0.916667 13.5788 0.572224 14.1513 0.350001C14.7238 0.116667 15.3287 0 15.966 0C16.5817 0 17.1434 0.0833331 17.6511 0.25C18.1696 0.416667 18.6233 0.655556 19.0121 0.966669C19.401 1.27778 19.7143 1.66111 19.9519 2.11667C20.2004 2.57222 20.357 3.08889 20.4218 3.66667H18.8015C18.6503 2.91111 18.3316 2.34444 17.8456 1.96667C17.3595 1.58889 16.7329 1.4 15.966 1.4C15.5663 1.4 15.1775 1.47778 14.7994 1.63333C14.4214 1.78889 14.0811 2.03889 13.7786 2.38333C13.487 2.71667 13.2494 3.16111 13.0657 3.71667C12.8929 4.27222 12.8065 4.95 12.8065 5.75001V6.08331C12.8065 6.92777 12.9037 7.6389 13.0981 8.21666C13.2926 8.78331 13.541 9.24446 13.8435 9.6C14.1459 9.95554 14.4862 10.2111 14.8642 10.3667C15.2423 10.5222 15.6095 10.6 15.966 10.6C16.8086 10.6 17.4675 10.3889 17.9428 9.96669C18.418 9.54446 18.7043 9 18.8015 8.33331H20.4218C20.3353 8.97776 20.1625 9.53331 19.9033 9.99999C19.644 10.4556 19.3146 10.8333 18.9149 11.1333C18.5261 11.4333 18.0778 11.6556 17.5701 11.8C17.0732 11.9333 16.5385 12 15.966 12Z" fill="white"/>
<path d="M34.8409 0.166687H41.9702V1.53335H36.364V11.8333H34.8409V0.166687Z" fill="white"/>
<path fill-rule="evenodd" clip-rule="evenodd" d="M8.55504 11.8333L7.46947 8.93334L6.96719 7.56671L5.07147 2.16669L3.17573 7.56671L2.67345 8.93334L1.58787 11.8333H0L4.34234 0.166687H5.86538L10.2077 11.8333H8.55504ZM6.01933 7.56671H5.07147H4.1236L3.72662 8.93334H5.07147H6.39155L6.01933 7.56671Z" fill="white"/>
<path fill-rule="evenodd" clip-rule="evenodd" d="M27.2218 12C26.5737 12 25.9472 11.8889 25.3423 11.6667C24.7375 11.4333 24.2027 11.0778 23.7383 10.6C23.2738 10.1222 22.9011 9.51112 22.6203 8.76669C22.3395 8.02221 22.199 7.12779 22.199 6.08331V5.75001C22.199 4.74999 22.3395 3.88889 22.6203 3.16667C22.9011 2.44444 23.2738 1.85 23.7383 1.38333C24.2027 0.905554 24.7375 0.555557 25.3423 0.333333L25.9419 1.65C25.5314 1.81667 25.1695 2.07778 24.8563 2.43333C24.543 2.77778 24.2892 3.22778 24.0947 3.78333C23.9111 4.32776 23.8193 4.98334 23.8193 5.75001V6.08331C23.8193 6.89443 23.9111 7.58889 24.0947 8.16669C24.2892 8.73334 24.543 9.20002 24.8563 9.56666C25.1695 9.9222 25.5314 10.1833 25.9419 10.35C26.3523 10.5167 26.779 10.6 27.2218 10.6V12ZM28.5019 1.65C28.0914 1.48333 27.6647 1.4 27.2218 1.4V0C27.87 0 28.4965 0.111111 29.1014 0.333333C29.7063 0.555557 30.241 0.905554 30.7055 1.38333C31.1699 1.85 31.5426 2.44444 31.8234 3.16667C32.1043 3.88889 32.2447 4.74999 32.2447 5.75001V6.08331C32.2447 7.12779 32.1043 8.02221 31.8234 8.76669C31.5426 9.51112 31.1699 10.1222 30.7055 10.6C30.241 11.0778 29.7063 11.4333 29.1014 11.6667L28.5019 10.35C28.9123 10.1833 29.2742 9.9222 29.5875 9.56666C29.9007 9.20002 30.1492 8.73334 30.3328 8.16669C30.5272 7.58889 30.6244 6.89443 30.6244 6.08331V5.75001C30.6244 4.98334 30.5272 4.32776 30.3328 3.78333C30.1492 3.22778 29.9007 2.77778 29.5875 2.43333C29.2742 2.07778 28.9123 1.81667 28.5019 1.65Z" fill="white"/>
<path fill-rule="evenodd" clip-rule="evenodd" d="M47.9772 12C47.329 12 46.7027 11.8889 46.0978 11.6667C45.4929 11.4333 44.9579 11.0778 44.4935 10.6C44.0291 10.1222 43.6564 9.51112 43.3755 8.76669C43.0949 8.02221 42.9544 7.12779 42.9544 6.08331V5.75001C42.9544 4.74999 43.0949 3.88889 43.3755 3.16667C43.6564 2.44444 44.0291 1.85 44.4935 1.38333C44.9579 0.905554 45.4929 0.555557 46.0978 0.333333L46.6972 1.65C46.2867 1.81667 45.9249 2.07778 45.6116 2.43333C45.2982 2.77778 45.0445 3.22778 44.8502 3.78333C44.6664 4.32776 44.5747 4.98334 44.5747 5.75001V6.08331C44.5747 6.89443 44.6664 7.58889 44.8502 8.16669C45.0445 8.73334 45.2982 9.20002 45.6116 9.56666C45.9249 9.9222 46.2867 10.1833 46.6972 10.35C47.1078 10.5167 47.5343 10.6 47.9772 10.6V12ZM49.2572 1.65C48.8467 1.48333 48.4201 1.4 47.9772 1.4V0C48.6254 0 49.2517 0.111111 49.8566 0.333333C50.4615 0.555557 50.9961 0.905554 51.4609 1.38333C51.9253 1.85 52.298 2.44444 52.5785 3.16667C52.8595 3.88889 53 4.74999 53 5.75001V6.08331C53 7.12779 52.8595 8.02221 52.5785 8.76669C52.298 9.51112 51.9253 10.1222 51.4609 10.6C50.9961 11.0778 50.4615 11.4333 49.8566 11.6667L49.2572 10.35C49.6677 10.1833 50.0295 9.9222 50.3429 9.56666C50.6558 9.20002 50.9044 8.73334 51.0882 8.16669C51.2826 7.58889 51.3797 6.89443 51.3797 6.08331V5.75001C51.3797 4.98334 51.2826 4.32776 51.0882 3.78333C50.9044 3.22778 50.6558 2.77778 50.3429 2.43333C50.0295 2.07778 49.6677 1.81667 49.2572 1.65Z" fill="white"/>
</g>
<defs>
<clipPath id="clip0_75_842">
<rect width="53" height="12" fill="white"/>
</clipPath>
</defs>
</svg>
