<svg width="64" height="15" viewBox="0 0 64 15" fill="none" xmlns="http://www.w3.org/2000/svg">
<path d="M10.832 14.28C9.56267 14.28 8.384 14.04 7.296 13.56C6.208 13.08 5.2 12.264 4.272 11.112C3.184 10.792 2.32533 10.1413 1.696 9.16C1.06667 8.17867 0.752 7.032 0.752 5.72C0.752 4.67467 0.954667 3.72533 1.36 2.872C1.76533 2.01867 2.34133 1.34667 3.088 0.856C3.84533 0.365333 4.72 0.12 5.712 0.12C6.704 0.12 7.57333 0.365333 8.32 0.856C9.07733 1.34667 9.65867 2.01867 10.064 2.872C10.4693 3.72533 10.672 4.67467 10.672 5.72C10.672 7.064 10.3413 8.232 9.68 9.224C9.02933 10.2053 8.144 10.8453 7.024 11.144C7.184 11.656 7.47733 12.1253 7.904 12.552C8.33067 12.9893 8.81067 13.3307 9.344 13.576C9.87733 13.832 10.3733 13.96 10.832 13.96V14.28ZM5.712 10.68C6.40533 10.68 7.00267 10.4773 7.504 10.072C8.016 9.66667 8.40533 9.096 8.672 8.36C8.93867 7.61333 9.072 6.73333 9.072 5.72C9.072 4.70667 8.93867 3.832 8.672 3.096C8.40533 2.34933 8.016 1.77333 7.504 1.368C7.00267 0.962666 6.40533 0.759999 5.712 0.759999C5.01867 0.759999 4.416 0.962666 3.904 1.368C3.40267 1.77333 3.01867 2.34933 2.752 3.096C2.48533 3.832 2.352 4.70667 2.352 5.72C2.352 6.73333 2.48533 7.61333 2.752 8.36C3.01867 9.096 3.40267 9.66667 3.904 10.072C4.416 10.4773 5.01867 10.68 5.712 10.68ZM15.3099 11.16C14.5099 11.16 13.8539 10.9467 13.3419 10.52C12.8405 10.0933 12.5899 9.34667 12.5899 8.28V5.4C12.5899 4.856 12.5152 4.456 12.3659 4.2C12.2165 3.93333 11.9179 3.8 11.4699 3.8H11.3099V3.48H12.5899C12.9845 3.48 13.2779 3.53333 13.4699 3.64C13.6725 3.736 13.8165 3.91733 13.9019 4.184C13.9872 4.45067 14.0299 4.856 14.0299 5.4V8.28C14.0299 9.02667 14.1952 9.576 14.5259 9.928C14.8672 10.2693 15.2885 10.44 15.7899 10.44C16.3552 10.44 16.8885 10.1573 17.3899 9.592V3.48H18.8299V11H18.0299L17.4699 10.36H17.3899C17.1659 10.584 16.8725 10.776 16.5099 10.936C16.1579 11.0853 15.7579 11.16 15.3099 11.16ZM22.9284 11.16C22.587 11.16 22.2404 11.0907 21.8884 10.952C21.5364 10.8027 21.2324 10.5627 20.9764 10.232C20.731 9.90133 20.6084 9.464 20.6084 8.92C20.6084 8.10933 20.9817 7.53333 21.7284 7.192C22.4857 6.85067 23.4724 6.68 24.6884 6.68H25.1684C25.1684 5.63467 25.0244 4.92 24.7364 4.536C24.4484 4.152 24.0324 3.96 23.4884 3.96C23.0084 3.96 22.6244 4.06133 22.3364 4.264C22.0484 4.46667 21.8457 4.81867 21.7284 5.32H21.0084C21.0084 4.95733 21.0297 4.67467 21.0724 4.472C21.115 4.25867 21.227 4.06133 21.4084 3.88C21.6004 3.688 21.915 3.54933 22.3524 3.464C22.8004 3.368 23.2857 3.32 23.8084 3.32C24.6724 3.32 25.355 3.55467 25.8564 4.024C26.3577 4.48267 26.6084 5.368 26.6084 6.68V11H25.8084L25.2484 10.28H25.1684C24.9764 10.5253 24.6937 10.7333 24.3204 10.904C23.947 11.0747 23.483 11.16 22.9284 11.16ZM23.6484 10.44C24.0004 10.44 24.2937 10.3547 24.5284 10.184C24.763 10.0133 24.9764 9.77867 25.1684 9.48V7.32H24.6884C23.899 7.32 23.275 7.46933 22.8164 7.768C22.3577 8.056 22.1284 8.44 22.1284 8.92C22.1284 9.41067 22.2724 9.78933 22.5604 10.056C22.859 10.312 23.2217 10.44 23.6484 10.44ZM31.3515 11.16C30.1248 11.16 29.2982 10.9467 28.8715 10.52C28.6902 10.3387 28.5782 10.136 28.5355 9.912C28.4928 9.67733 28.4715 9.32 28.4715 8.84H28.7915C28.8875 9.37333 29.1168 9.78933 29.4795 10.088C29.8528 10.376 30.3702 10.52 31.0315 10.52C31.6182 10.52 32.0555 10.4187 32.3435 10.216C32.6422 10.0133 32.7915 9.74133 32.7915 9.4C32.7915 9.09067 32.6742 8.824 32.4395 8.6C32.2155 8.376 31.8528 8.16267 31.3515 7.96L30.3915 7.56C29.7515 7.304 29.2715 7.00533 28.9515 6.664C28.6315 6.32267 28.4715 5.90133 28.4715 5.4C28.4715 4.74933 28.7168 4.24267 29.2075 3.88C29.6982 3.50667 30.3328 3.32 31.1115 3.32C32.2848 3.32 33.0848 3.53333 33.5115 3.96C33.6928 4.14133 33.8048 4.344 33.8475 4.568C33.8902 4.792 33.9115 5.14933 33.9115 5.64H33.5915C33.5062 5.10667 33.2822 4.696 32.9195 4.408C32.5568 4.10933 32.0608 3.96 31.4315 3.96C30.9302 3.96 30.5355 4.06667 30.2475 4.28C29.9702 4.48267 29.8315 4.74933 29.8315 5.08C29.8315 5.63467 30.2582 6.088 31.1115 6.44L32.0715 6.84C32.7968 7.13867 33.3248 7.45867 33.6555 7.8C33.9862 8.13067 34.1515 8.55733 34.1515 9.08C34.1515 9.73067 33.8902 10.2427 33.3675 10.616C32.8448 10.9787 32.1728 11.16 31.3515 11.16ZM37.7721 11.16C37.4308 11.16 37.0841 11.0907 36.7321 10.952C36.3801 10.8027 36.0761 10.5627 35.8201 10.232C35.5748 9.90133 35.4521 9.464 35.4521 8.92C35.4521 8.10933 35.8255 7.53333 36.5721 7.192C37.3295 6.85067 38.3161 6.68 39.5321 6.68H40.0121C40.0121 5.63467 39.8681 4.92 39.5801 4.536C39.2921 4.152 38.8761 3.96 38.3321 3.96C37.8521 3.96 37.4681 4.06133 37.1801 4.264C36.8921 4.46667 36.6895 4.81867 36.5721 5.32H35.8521C35.8521 4.95733 35.8735 4.67467 35.9161 4.472C35.9588 4.25867 36.0708 4.06133 36.2521 3.88C36.4441 3.688 36.7588 3.54933 37.1961 3.464C37.6441 3.368 38.1295 3.32 38.6521 3.32C39.5161 3.32 40.1988 3.55467 40.7001 4.024C41.2015 4.48267 41.4521 5.368 41.4521 6.68V11H40.6521L40.0921 10.28H40.0121C39.8201 10.5253 39.5375 10.7333 39.1641 10.904C38.7908 11.0747 38.3268 11.16 37.7721 11.16ZM38.4921 10.44C38.8441 10.44 39.1375 10.3547 39.3721 10.184C39.6068 10.0133 39.8201 9.77867 40.0121 9.48V7.32H39.5321C38.7428 7.32 38.1188 7.46933 37.6601 7.768C37.2015 8.056 36.9721 8.44 36.9721 8.92C36.9721 9.41067 37.1161 9.78933 37.4041 10.056C37.7028 10.312 38.0655 10.44 38.4921 10.44ZM47.2833 11.16C46.7393 11.16 46.2913 11.0747 45.9393 10.904C45.5873 10.7333 45.3153 10.5253 45.1233 10.28H45.0433L44.4833 11H43.6833V2.36C43.6833 1.816 43.6086 1.416 43.4593 1.16C43.3099 0.893333 43.0113 0.759999 42.5633 0.759999H42.2432V0.44H43.6833C44.0779 0.44 44.3713 0.493333 44.5633 0.599999C44.7659 0.695999 44.9099 0.877333 44.9953 1.144C45.0806 1.41067 45.1233 1.816 45.1233 2.36V3.8C45.4326 3.65067 45.7419 3.53333 46.0513 3.448C46.3606 3.36267 46.7179 3.32 47.1233 3.32C48.1153 3.32 48.8673 3.688 49.3793 4.424C49.9019 5.16 50.1633 6.09867 50.1633 7.24C50.1633 8.37067 49.9126 9.30933 49.4113 10.056C48.9099 10.792 48.2006 11.16 47.2833 11.16ZM46.8033 10.52C47.4113 10.52 47.8699 10.2213 48.1793 9.624C48.4886 9.016 48.6433 8.22133 48.6433 7.24C48.6433 6.248 48.4779 5.45333 48.1473 4.856C47.8273 4.25867 47.3259 3.96 46.6432 3.96C46.4193 3.96 46.1899 4.00267 45.9553 4.088C45.7206 4.17333 45.4433 4.29067 45.1233 4.44V9.56C45.3153 9.848 45.5393 10.0827 45.7953 10.264C46.0619 10.4347 46.3979 10.52 46.8033 10.52ZM52.1863 5.4C52.1863 4.856 52.1116 4.456 51.9622 4.2C51.8129 3.93333 51.5143 3.8 51.0663 3.8H50.9062V3.48H52.1863C52.5916 3.48 52.8956 3.53867 53.0983 3.656C53.3116 3.76267 53.4609 3.944 53.5463 4.2H53.6263C53.8183 3.95467 54.0743 3.74667 54.3943 3.576C54.7249 3.40533 55.1089 3.32 55.5463 3.32C55.9729 3.32 56.2929 3.4 56.5063 3.56C56.6876 3.69867 56.8743 3.93867 57.0663 4.28L56.4263 4.76C56.3089 4.6 56.1383 4.48267 55.9143 4.408C55.6903 4.32267 55.4343 4.28 55.1463 4.28C54.8263 4.28 54.5329 4.35467 54.2663 4.504C53.9996 4.64267 53.7863 4.83467 53.6263 5.08V11H52.1863V5.4ZM60.2096 11.16C59.8683 11.16 59.5216 11.0907 59.1696 10.952C58.8176 10.8027 58.5136 10.5627 58.2576 10.232C58.0123 9.90133 57.8896 9.464 57.8896 8.92C57.8896 8.10933 58.263 7.53333 59.0096 7.192C59.767 6.85067 60.7536 6.68 61.9696 6.68H62.4496C62.4496 5.63467 62.3056 4.92 62.0176 4.536C61.7296 4.152 61.3136 3.96 60.7696 3.96C60.2896 3.96 59.9056 4.06133 59.6176 4.264C59.3296 4.46667 59.127 4.81867 59.0096 5.32H58.2896C58.2896 4.95733 58.311 4.67467 58.3536 4.472C58.3963 4.25867 58.5083 4.06133 58.6896 3.88C58.8816 3.688 59.1963 3.54933 59.6336 3.464C60.0816 3.368 60.567 3.32 61.0896 3.32C61.9536 3.32 62.6363 3.55467 63.1376 4.024C63.639 4.48267 63.8896 5.368 63.8896 6.68V11H63.0896L62.5296 10.28H62.4496C62.2576 10.5253 61.975 10.7333 61.6016 10.904C61.2283 11.0747 60.7643 11.16 60.2096 11.16ZM60.9296 10.44C61.2816 10.44 61.575 10.3547 61.8096 10.184C62.0443 10.0133 62.2576 9.77867 62.4496 9.48V7.32H61.9696C61.1803 7.32 60.5563 7.46933 60.0976 7.768C59.639 8.056 59.4096 8.44 59.4096 8.92C59.4096 9.41067 59.5536 9.78933 59.8416 10.056C60.1403 10.312 60.503 10.44 60.9296 10.44Z" fill="white"/>
</svg>
