<svg width="92" height="20" viewBox="0 0 92 20" fill="none" xmlns="http://www.w3.org/2000/svg">
<path d="M0 4H4.97015C6.1791 4 7.15298 4.38286 7.89179 5.14857C8.63059 5.91429 9 6.93143 9 8.2C9 9.43428 8.63059 10.4286 7.89179 11.1829C7.15298 11.9257 6.1791 12.2971 4.97015 12.2971H2.31716V16H0V4ZM3.57649 4.96H2.31716V11.3371H3.57649C4.5056 11.3371 5.25559 11.0457 5.82649 10.4629C6.39739 9.86857 6.68283 9.08571 6.68283 8.11428C6.68283 7.16571 6.39739 6.40571 5.82649 5.83428C5.25559 5.25143 4.5056 4.96 3.57649 4.96Z" fill="white"/>
<path d="M10.1999 16V4H18.5999V4.96H12.6099V8.40571H17.3774V9.34857H12.6099V15.04H18.5999V16H10.1999Z" fill="white"/>
<path d="M19.8 4H24.7425C25.9447 4 26.9132 4.38286 27.6479 5.14857C28.3826 5.91429 28.7499 6.93143 28.7499 8.2C28.7499 9.08 28.5551 9.84571 28.1655 10.4971C27.7759 11.1486 27.2416 11.6229 26.5626 11.92L28.8 16H26.1451L24.108 12.2971H22.1043V16H19.8V4ZM22.1043 11.3371H23.3566C24.2806 11.3371 25.0264 11.0457 25.5941 10.4629C26.1618 9.86857 26.4457 9.08571 26.4457 8.11428C26.4457 7.16571 26.1618 6.40571 25.5941 5.83428C25.0264 5.25143 24.2806 4.96 23.3566 4.96H22.1043V11.3371Z" fill="white"/>
<path d="M31.0197 16H29.9999L34.7251 4.78857L34.3852 4H36.9518L41.9999 16H39.4333L37.6996 11.8686H32.7535L31.0197 16ZM35.235 6.00571L33.1614 10.9257H37.2917L35.235 6.00571Z" fill="white"/>
<path d="M57.6016 11.3359C57.6016 12.862 57.1797 14.0521 56.3359 14.9062C55.4974 15.7604 54.3255 16.1875 52.8203 16.1875C51.2474 16.1875 49.9922 15.6562 49.0547 14.5938C48.1224 13.526 47.6562 12.0964 47.6562 10.3047C47.6562 8.54427 48.1224 7.14323 49.0547 6.10156C49.987 5.0599 51.2422 4.53906 52.8203 4.53906C54.0391 4.53906 55.0755 4.875 55.9297 5.54688C56.7891 6.21354 57.3229 7.10677 57.5312 8.22656H56.0547C55.8203 7.46615 55.4193 6.8776 54.8516 6.46094C54.2891 6.04427 53.612 5.83594 52.8203 5.83594C51.6589 5.83594 50.7474 6.23177 50.0859 7.02344C49.4297 7.8099 49.1016 8.90104 49.1016 10.2969C49.1016 11.7135 49.4349 12.8333 50.1016 13.6562C50.7682 14.4792 51.6745 14.8906 52.8203 14.8906C53.8203 14.8906 54.6328 14.5964 55.2578 14.0078C55.8828 13.4141 56.1953 12.6458 56.1953 11.7031V11.5H53.0156V10.2656H57.6016V11.3359ZM59.3125 16V4.23438H60.6719V16H59.3125ZM68.8906 14.9141C68.1875 15.6901 67.2448 16.0781 66.0625 16.0781C64.8802 16.0781 63.9375 15.6901 63.2344 14.9141C62.5312 14.138 62.1797 13.0964 62.1797 11.7891C62.1797 10.4818 62.5312 9.4401 63.2344 8.66406C63.9375 7.88802 64.8802 7.5 66.0625 7.5C67.2448 7.5 68.1875 7.88802 68.8906 8.66406C69.5938 9.4401 69.9453 10.4818 69.9453 11.7891C69.9453 13.0964 69.5938 14.138 68.8906 14.9141ZM66.0625 14.8672C66.849 14.8672 67.4609 14.5964 67.8984 14.0547C68.3411 13.5078 68.5625 12.7526 68.5625 11.7891C68.5625 10.8203 68.3411 10.0651 67.8984 9.52344C67.4609 8.98177 66.849 8.71094 66.0625 8.71094C65.276 8.71094 64.6615 8.98438 64.2188 9.53125C63.7812 10.0729 63.5625 10.8255 63.5625 11.7891C63.5625 12.7526 63.7839 13.5078 64.2266 14.0547C64.6693 14.5964 65.2812 14.8672 66.0625 14.8672ZM75.5156 16.0781C74.901 16.0781 74.3594 15.9505 73.8906 15.6953C73.4219 15.4349 73.0495 15.0625 72.7734 14.5781H72.7422V16H71.4531V4.23438H72.8125V8.94531H72.8438C73.1094 8.48177 73.4766 8.125 73.9453 7.875C74.4141 7.625 74.9479 7.5 75.5469 7.5C76.6094 7.5 77.4688 7.89583 78.125 8.6875C78.7812 9.47396 79.1094 10.5078 79.1094 11.7891C79.1094 13.0755 78.7786 14.112 78.1172 14.8984C77.4609 15.6849 76.5938 16.0781 75.5156 16.0781ZM75.2734 8.71094C74.5391 8.71094 73.9427 8.9974 73.4844 9.57031C73.0312 10.138 72.8047 10.8776 72.8047 11.7891C72.8047 12.7057 73.0312 13.4479 73.4844 14.0156C73.9427 14.5833 74.5391 14.8672 75.2734 14.8672C76.013 14.8672 76.6042 14.5885 77.0469 14.0312C77.4948 13.474 77.7188 12.7266 77.7188 11.7891C77.7188 10.8568 77.4948 10.112 77.0469 9.55469C76.6042 8.99219 76.013 8.71094 75.2734 8.71094ZM83.2969 14.8984C83.9844 14.8984 84.5521 14.7005 85 14.3047C85.4531 13.9036 85.6797 13.401 85.6797 12.7969V12.1172L83.4766 12.2578C82.1953 12.3359 81.5547 12.7865 81.5547 13.6094C81.5547 14 81.7109 14.3125 82.0234 14.5469C82.3411 14.7812 82.7656 14.8984 83.2969 14.8984ZM83.0078 16.0781C82.1536 16.0781 81.4661 15.8516 80.9453 15.3984C80.4245 14.9453 80.1641 14.3464 80.1641 13.6016C80.1641 12.8776 80.4349 12.3099 80.9766 11.8984C81.5182 11.4818 82.2995 11.2422 83.3203 11.1797L85.6797 11.0391V10.3359C85.6797 9.8151 85.513 9.41406 85.1797 9.13281C84.8464 8.85156 84.3698 8.71094 83.75 8.71094C83.2604 8.71094 82.8464 8.82812 82.5078 9.0625C82.1745 9.29688 81.9661 9.61198 81.8828 10.0078H80.5781C80.599 9.29948 80.9141 8.70573 81.5234 8.22656C82.1328 7.74219 82.8802 7.5 83.7656 7.5C84.7604 7.5 85.5547 7.7474 86.1484 8.24219C86.7422 8.73177 87.0391 9.39062 87.0391 10.2188V16H85.75V14.5391H85.7188C85.4792 15.0078 85.1146 15.3828 84.625 15.6641C84.1354 15.9401 83.5964 16.0781 83.0078 16.0781ZM88.9219 16V4.23438H90.2812V16H88.9219Z" fill="white" fill-opacity="0.5"/>
</svg>
