<svg width="237" height="237" viewBox="0 0 237 237" fill="none" xmlns="http://www.w3.org/2000/svg">
<g id="DeeNFItgqiUwv8Qq55JQ0BLMOABxUlMgfbnnoWKP 1">
<path id="Vector" d="M34.8965 182.935L105.256 213.3" stroke="white" stroke-width="2"/>
<path id="Vector_2" d="M132.659 212.559L202.278 182.935" stroke="white" stroke-width="2"/>
<path id="Vector_3" d="M34.8965 54.8062L105.256 25.1812" stroke="white" stroke-width="2"/>
<path id="Vector_4" d="M131.918 99.2437L202.278 69.6187" stroke="white" stroke-width="2"/>
<path id="Vector_5" d="M22.3059 76.2847V161.456" stroke="white" stroke-width="2"/>
<path id="Vector_6" d="M214.868 76.2847V116.278" stroke="white" stroke-width="2"/>
<path id="Vector_7" d="M118.587 125.165V201.45" stroke="white" stroke-opacity="0.5" stroke-width="2" stroke-dasharray="4 8"/>
<path id="Vector_8" d="M132.659 25.5518L202.278 55.1768" stroke="white" stroke-width="2"/>
<path id="Vector_9" d="M34.8965 69.6187L105.996 99.9839" stroke="white" stroke-width="2"/>
<path id="Vector_10" d="M22.3059 75.5873C30.1016 75.5873 36.4213 69.2676 36.4213 61.4719C36.4213 53.6761 30.1016 47.3564 22.3059 47.3564C14.5101 47.3564 8.19043 53.6761 8.19043 61.4719C8.19043 69.2676 14.5101 75.5873 22.3059 75.5873Z" stroke="white" stroke-width="2"/>
<path id="Vector_11" d="M22.3059 190.384C30.1016 190.384 36.4213 184.065 36.4213 176.269C36.4213 168.473 30.1016 162.153 22.3059 162.153C14.5101 162.153 8.19043 168.473 8.19043 176.269C8.19043 184.065 14.5101 190.384 22.3059 190.384Z" stroke="white" stroke-width="2"/>
<path id="Vector_12" d="M118.587 35.5937C126.383 35.5937 132.703 29.274 132.703 21.4782C132.703 13.6825 126.383 7.36279 118.587 7.36279C110.791 7.36279 104.472 13.6825 104.472 21.4782C104.472 29.274 110.791 35.5937 118.587 35.5937Z" stroke="white" stroke-width="2"/>
<path id="Vector_13" d="M118.587 119.284C126.383 119.284 132.703 112.964 132.703 105.169C132.703 97.3729 126.383 91.0532 118.587 91.0532C110.791 91.0532 104.472 97.3729 104.472 105.169C104.472 112.964 110.791 119.284 118.587 119.284Z" stroke="white" stroke-width="2"/>
<path id="Vector_14" d="M118.587 231.075C126.768 231.075 133.4 224.443 133.4 216.263C133.4 208.082 126.768 201.45 118.587 201.45C110.406 201.45 103.775 208.082 103.775 216.263C103.775 224.443 110.406 231.075 118.587 231.075Z" fill="#FF5A13"/>
<path id="Vector_15" d="M214.868 190.384C222.664 190.384 228.984 184.065 228.984 176.269C228.984 168.473 222.664 162.153 214.868 162.153C207.073 162.153 200.753 168.473 200.753 176.269C200.753 184.065 207.073 190.384 214.868 190.384Z" stroke="white" stroke-width="2"/>
<path id="Vector_16" d="M214.868 76.2842C223.049 76.2842 229.681 69.6524 229.681 61.4717C229.681 53.291 223.049 46.6592 214.868 46.6592C206.688 46.6592 200.056 53.291 200.056 61.4717C200.056 69.6524 206.688 76.2842 214.868 76.2842Z" fill="#FF5A13"/>
</g>
</svg>
