<svg width="237" height="237" viewBox="0 0 237 237" fill="none" xmlns="http://www.w3.org/2000/svg">
<g id="B1Dkn6nyGjAaryOhTEhJbA9rY213PzdNHrxaNHrm 1">
<path id="Vector" d="M193.315 36.3201L117.106 118.5L193.315 200.68C196.301 203.885 200.129 206.067 204.302 206.944C208.475 207.821 212.8 207.353 216.718 205.6C220.636 203.847 223.966 200.89 226.277 197.112C228.587 193.333 229.771 188.909 229.675 184.41V52.5894C229.771 48.0914 228.587 43.6668 226.277 39.8887C223.966 36.1107 220.636 33.1535 216.718 31.4004C212.8 29.6472 208.475 29.1788 204.302 30.056C200.129 30.9332 196.301 33.1155 193.315 36.3201Z" stroke="white" stroke-width="2" stroke-miterlimit="10"/>
<path id="Vector_2" d="M44.2721 200.665L120.068 118.501L43.8594 36.2972C40.871 33.1012 37.04 30.9257 32.8636 30.0527C28.6872 29.1797 24.3582 29.6498 20.4384 31.4017C16.5187 33.1536 13.1891 36.1066 10.8819 39.8774C8.57468 43.6482 7.3963 48.0628 7.49967 52.5481L7.8749 184.572C7.79453 189.053 8.99228 193.455 11.3131 197.21C13.6339 200.964 16.9708 203.898 20.8919 205.632C24.813 207.366 29.1377 207.819 33.3061 206.934C37.4745 206.048 41.2948 203.865 44.2721 200.665Z" stroke="white" stroke-width="2" stroke-miterlimit="10"/>
<path id="Vector_3" d="M49.937 118.596H187.231" stroke="white" stroke-opacity="0.5" stroke-width="2" stroke-miterlimit="10"/>
<path id="Vector_4" d="M118.588 41.3384V195.853" stroke="white" stroke-opacity="0.5" stroke-width="2" stroke-miterlimit="10"/>
<path id="Vector_5" d="M118.587 133.312C126.768 133.312 133.4 126.681 133.4 118.5C133.4 110.319 126.768 103.688 118.587 103.688C110.406 103.688 103.775 110.319 103.775 118.5C103.775 126.681 110.406 133.312 118.587 133.312Z" fill="#FF5A13"/>
</g>
</svg>
