<svg width="237" height="237" viewBox="0 0 237 237" fill="none" xmlns="http://www.w3.org/2000/svg">
<g id="1l5z411DrZxRFngTmQQcCnHqwUOCiB7QFOXAwrTW 1">
<path id="Vector" d="M118.587 118.5L37.1184 37.0312" stroke="white" stroke-opacity="0.5" stroke-width="2" stroke-miterlimit="10" stroke-dasharray="4 4"/>
<path id="Vector_2" d="M200.056 199.969L118.587 118.5" stroke="white" stroke-opacity="0.5" stroke-width="2" stroke-miterlimit="10" stroke-dasharray="4 4"/>
<path id="Vector_3" d="M118.587 118.5L200.056 37.0312" stroke="white" stroke-opacity="0.5" stroke-width="2" stroke-miterlimit="10" stroke-dasharray="4 4"/>
<path id="Vector_4" d="M37.1184 199.969L118.587 118.5" stroke="white" stroke-opacity="0.5" stroke-width="2" stroke-miterlimit="10" stroke-dasharray="4 4"/>
<path id="Vector_5" d="M118.587 187.378C156.628 187.378 187.466 156.541 187.466 118.5C187.466 80.4596 156.628 49.6221 118.587 49.6221C80.5465 49.6221 49.709 80.4596 49.709 118.5C49.709 156.541 80.5465 187.378 118.587 187.378Z" stroke="white" stroke-width="2" stroke-miterlimit="10"/>
<path id="Vector_6" d="M87.4809 118.5H14.8997" stroke="white" stroke-width="2" stroke-miterlimit="10"/>
<path id="Vector_7" d="M222.275 118.5H149.693" stroke="white" stroke-width="2" stroke-miterlimit="10"/>
<path id="Vector_8" d="M118.587 87.3938V14.8125" stroke="white" stroke-width="2" stroke-miterlimit="10"/>
<path id="Vector_9" d="M118.587 222.188V149.606" stroke="white" stroke-width="2" stroke-miterlimit="10"/>
<path id="Vector_10" d="M118.587 133.312C126.768 133.312 133.4 126.681 133.4 118.5C133.4 110.319 126.768 103.688 118.587 103.688C110.406 103.688 103.775 110.319 103.775 118.5C103.775 126.681 110.406 133.312 118.587 133.312Z" fill="#FF5A13"/>
<path id="Vector_11" d="M210.425 37.8156C216.584 37.8156 221.578 32.8223 221.578 26.6627C221.578 20.5031 216.584 15.5098 210.425 15.5098C204.265 15.5098 199.272 20.5031 199.272 26.6627C199.272 32.8223 204.265 37.8156 210.425 37.8156Z" stroke="white" stroke-width="2"/>
<path id="Vector_12" d="M26.7496 37.8156C32.9092 37.8156 37.9026 32.8223 37.9026 26.6627C37.9026 20.5031 32.9092 15.5098 26.7496 15.5098C20.59 15.5098 15.5967 20.5031 15.5967 26.6627C15.5967 32.8223 20.59 37.8156 26.7496 37.8156Z" stroke="white" stroke-width="2"/>
<path id="Vector_13" d="M210.425 221.49C216.584 221.49 221.578 216.497 221.578 210.338C221.578 204.178 216.584 199.185 210.425 199.185C204.265 199.185 199.272 204.178 199.272 210.338C199.272 216.497 204.265 221.49 210.425 221.49Z" stroke="white" stroke-width="2"/>
<path id="Vector_14" d="M26.7496 221.49C32.9092 221.49 37.9026 216.497 37.9026 210.338C37.9026 204.178 32.9092 199.185 26.7496 199.185C20.59 199.185 15.5967 204.178 15.5967 210.338C15.5967 216.497 20.59 221.49 26.7496 221.49Z" stroke="white" stroke-width="2"/>
</g>
</svg>
