<svg width="237" height="237" viewBox="0 0 237 237" fill="none" xmlns="http://www.w3.org/2000/svg">
<g id="lUE73dgS4YlfizFYO2ZyeA0GjStagPyW9Kgdy737 1">
<path id="Vector" d="M131.992 35.5498H99.2138C60.2034 35.5498 28.5795 67.1738 28.5795 106.184V138.963C28.5795 177.973 60.2034 209.597 99.2138 209.597H131.992C171.003 209.597 202.627 177.973 202.627 138.963V106.184C202.627 67.1738 171.003 35.5498 131.992 35.5498Z" stroke="white" stroke-opacity="0.5" stroke-width="2" stroke-miterlimit="10"/>
<path id="Vector_2" d="M194.871 75.5439C213.278 75.5439 228.199 60.6224 228.199 42.2158C228.199 23.8092 213.278 8.8877 194.871 8.8877C176.464 8.8877 161.543 23.8092 161.543 42.2158C161.543 60.6224 176.464 75.5439 194.871 75.5439Z" fill="#FF5A13"/>
<g id="Clip path group">
<mask id="mask0_225_1772" style="mask-type:luminance" maskUnits="userSpaceOnUse" x="174" y="26" width="41" height="32">
<g id="clip0_1340_18950">
<path id="Vector_3" d="M214.868 26.6626H174.875V57.7688H214.868V26.6626Z" fill="white"/>
</g>
</mask>
<g mask="url(#mask0_225_1772)">
<g id="Group">
<path id="Vector_4" d="M184.714 34.1216L177.096 41.7395L184.714 49.3573" stroke="white" stroke-width="2" stroke-miterlimit="10" stroke-linecap="square"/>
<path id="Vector_5" d="M205.029 34.1216L212.646 41.7395L205.029 49.3573" stroke="white" stroke-width="2" stroke-miterlimit="10" stroke-linecap="square"/>
<path id="Vector_6" d="M189.793 55.7056L199.951 27.7734" stroke="white" stroke-width="2" stroke-miterlimit="10" stroke-linecap="square"/>
</g>
</g>
</g>
<path id="Vector_7" d="M152.656 122.334C152.656 150.28 148.451 175.549 141.674 193.808C138.285 202.939 134.267 210.28 129.84 215.326C125.411 220.373 120.635 223.059 115.712 223.059C110.788 223.059 106.012 220.373 101.584 215.326C97.1568 210.28 93.1383 202.939 89.7492 193.808C82.9731 175.549 78.7677 150.28 78.7677 122.334C78.7677 94.3874 82.9731 69.1181 89.7492 50.8602C93.1383 41.7286 97.1568 34.3874 101.584 29.3418C106.012 24.295 110.788 21.6089 115.712 21.6089C120.635 21.6089 125.411 24.295 129.84 29.3418C134.267 34.3874 138.285 41.7286 141.674 50.8602C148.451 69.1181 152.656 94.3874 152.656 122.334Z" stroke="white" stroke-width="2"/>
<path id="Vector_8" d="M115.363 85.3896C143.31 85.3896 168.579 89.595 186.837 96.3711C195.968 99.7602 203.31 103.779 208.355 108.206C213.402 112.634 216.088 117.41 216.088 122.334C216.088 127.257 213.402 132.033 208.355 136.462C203.31 140.889 195.968 144.907 186.837 148.296C168.579 155.073 143.31 159.278 115.363 159.278C87.4167 159.278 62.1474 155.073 43.8895 148.296C34.7579 144.907 27.4167 140.889 22.3711 136.462C17.3243 132.033 14.6382 127.257 14.6382 122.334C14.6382 117.41 17.3243 112.634 22.3711 108.206C27.4167 103.779 34.7579 99.7602 43.8895 96.3711C62.1474 89.595 87.4167 85.3896 115.363 85.3896Z" stroke="white" stroke-width="2"/>
</g>
</svg>
