<svg width="138" height="138" viewBox="0 0 138 138" fill="none" xmlns="http://www.w3.org/2000/svg">
<g id="logo">
<g id="symbol">
<mask id="mask0_75_646" style="mask-type:alpha" maskUnits="userSpaceOnUse" x="24" y="24" width="90" height="90">
<circle id="mask" cx="69" cy="69" r="45" fill="#D9D9D9"/>
</mask>
<g mask="url(#mask0_75_646)">
<g id="content">
<g id="Group 3">
<path id="Vector 1" d="M24 66.247V71.4357C24 71.5712 24.1203 71.6732 24.2544 71.6535L40.8805 69.2174C40.9896 69.2014 41.0705 69.1078 41.0705 68.9976V68.8792C41.0705 68.7699 40.991 68.6768 40.883 68.6597L24.257 66.0287C24.1221 66.0073 24 66.1104 24 66.247Z" fill="#FF5A13"/>
<path id="Vector 2" d="M26.1688 54.8333L24.8581 59.8507C24.8238 59.9819 24.9143 60.1114 25.0489 60.1268L41.7425 62.0394C41.852 62.0519 41.9538 61.9821 41.9817 61.8754L42.0116 61.7612C42.0392 61.6554 41.9859 61.5449 41.8858 61.5007L26.4723 54.688C26.3474 54.6328 26.2034 54.7012 26.1688 54.8333Z" fill="#FF5A13"/>
<path id="Vector 3" d="M31.3722 44.1899L28.8079 48.688C28.7408 48.8057 28.7943 48.9545 28.92 49.0048L44.5402 55.2441C44.6425 55.285 44.7589 55.2443 44.8136 55.1484L44.8716 55.0466C44.9258 54.9516 44.903 54.8308 44.818 54.7619L31.7025 44.129C31.5964 44.0429 31.4398 44.0713 31.3722 44.1899Z" fill="#FF5A13"/>
<path id="Vector 4" d="M38.7511 35.464L35.2035 39.2214C35.1105 39.3199 35.1272 39.4772 35.2373 39.5558L48.9478 49.3475C49.0375 49.4116 49.1603 49.3996 49.2361 49.3193L49.3157 49.235C49.3909 49.1554 49.3973 49.0325 49.331 48.9453L39.0863 35.483C39.0035 35.3742 38.8448 35.3648 38.7511 35.464Z" fill="#FF5A13"/>
<path id="Vector 5" d="M48.7759 28.658L44.3348 31.2763C44.2182 31.3451 44.1906 31.5007 44.2746 31.6068L54.7559 44.8468C54.8243 44.9333 54.9457 44.9558 55.0409 44.8998L55.1397 44.8415C55.234 44.7859 55.2742 44.6696 55.2345 44.5675L49.0928 28.769C49.0433 28.6417 48.8935 28.5887 48.7759 28.658Z" fill="#FF5A13"/>
<path id="Vector 6" d="M60.0886 24.7993L55.1087 26.1003C54.9778 26.1345 54.909 26.2765 54.9611 26.4014L61.4727 42.0178C61.5152 42.1197 61.626 42.1746 61.7329 42.1467L61.843 42.1179C61.9489 42.0902 62.0192 41.9894 62.0086 41.8803L60.3638 24.9925C60.3505 24.8567 60.2205 24.7648 60.0886 24.7993Z" fill="#FF5A13"/>
<path id="Vector 7" d="M71.5786 24.0011L66.4345 24.0273C66.2991 24.0279 66.1978 24.1484 66.2178 24.2823L68.7199 41.0338C68.7362 41.1431 68.8304 41.2237 68.9408 41.2232L69.0543 41.2226C69.1638 41.222 69.2566 41.1418 69.2729 41.0335L71.7983 24.2564C71.8186 24.1216 71.7149 24.0004 71.5786 24.0011Z" fill="#FF5A13"/>
<path id="Vector 8" d="M83.063 26.1426L78.0888 24.8198C77.958 24.785 77.8291 24.8749 77.8139 25.0095L75.9092 41.8402C75.8968 41.9501 75.9668 42.0527 76.0736 42.081L76.1835 42.1103C76.2894 42.1384 76.3996 42.0852 76.4433 41.9848L83.2092 26.4469C83.2636 26.3219 83.1948 26.1777 83.063 26.1426Z" fill="#FF5A13"/>
<path id="Vector 9" d="M93.7554 31.3641L89.3067 28.7588C89.1899 28.6904 89.042 28.7429 88.9918 28.8688L82.7287 44.5874C82.6878 44.6901 82.7281 44.8077 82.8234 44.8635L82.9224 44.9215C83.0169 44.9768 83.1371 44.9548 83.2057 44.8696L93.8158 31.6967C93.9012 31.5906 93.8731 31.433 93.7554 31.3641Z" fill="#FF5A13"/>
<path id="Vector 10" d="M102.591 39.1497L99.0101 35.4247C98.9163 35.3271 98.7597 35.3375 98.6773 35.4453L88.4189 48.8603C88.3518 48.9481 88.3587 49.0722 88.4352 49.1518L88.5156 49.2354C88.5915 49.3143 88.713 49.3258 88.8021 49.2625L102.559 39.4865C102.67 39.4075 102.686 39.2481 102.591 39.1497Z" fill="#FF5A13"/>
<path id="Vector 11" d="M109.173 48.6875L106.6 44.1945C106.533 44.0769 106.378 44.0489 106.272 44.1333L93.0807 54.6233C92.9943 54.6921 92.9708 54.814 93.0257 54.9098L93.0839 55.0114C93.1382 55.1064 93.2533 55.1471 93.3551 55.1076L109.06 49.0062C109.187 48.9568 109.241 48.806 109.173 48.6875Z" fill="#FF5A13"/>
<path id="Vector 12" d="M112.957 59.9448L111.602 54.9394C111.566 54.8086 111.424 54.7421 111.3 54.7966L95.8964 61.5603C95.7954 61.6046 95.7419 61.7164 95.7707 61.8229L95.8015 61.9369C95.8301 62.0424 95.9311 62.1111 96.0397 62.099L112.767 60.2237C112.902 60.2085 112.993 60.0766 112.957 59.9448Z" fill="#FF5A13"/>
<path id="Vector 13" d="M113.999 71.6155L113.978 66.4269C113.977 66.2914 113.856 66.1899 113.722 66.2101L97.1064 68.7163C96.9973 68.7327 96.9168 68.8267 96.9173 68.9369L96.9178 69.0553C96.9182 69.1646 96.9981 69.2574 97.1062 69.274L113.743 71.8349C113.878 71.8557 114 71.7521 113.999 71.6155Z" fill="#FF5A13"/>
<path id="Vector 14" d="M111.736 83.2195L113.052 78.2035C113.087 78.0724 112.996 77.9427 112.862 77.9272L96.1702 75.9968C96.0607 75.9841 95.9587 76.0538 95.9307 76.1605L95.9008 76.2747C95.873 76.3805 95.9263 76.491 96.0263 76.5354L111.433 83.3645C111.558 83.4198 111.702 83.3516 111.736 83.2195Z" fill="#FF5A13"/>
<path id="Vector 15" d="M106.745 93.6997L109.256 89.1711C109.321 89.0526 109.266 88.9044 109.14 88.8557L93.447 82.8043C93.3441 82.7647 93.2282 82.8068 93.1747 82.9033L93.1179 83.0058C93.0648 83.1015 93.089 83.222 93.1749 83.2899L106.415 93.7646C106.522 93.8494 106.678 93.8191 106.745 93.6997Z" fill="#FF5A13"/>
<path id="Vector 16" d="M99.1137 102.656L102.736 98.9708C102.83 98.8742 102.817 98.7166 102.708 98.6358L89.1959 88.5683C89.1075 88.5024 88.9845 88.5119 88.9071 88.5906L88.8258 88.6733C88.7491 88.7514 88.7402 88.8741 88.8048 88.9626L98.7791 102.63C98.8596 102.74 99.0181 102.753 99.1137 102.656Z" fill="#FF5A13"/>
<path id="Vector 17" d="M89.4861 109.117L93.9298 106.503C94.0465 106.435 94.0742 106.279 93.9903 106.173L83.522 92.9224C83.4536 92.8358 83.3322 92.8131 83.237 92.8691L83.1382 92.9273C83.0438 92.9828 83.0034 93.099 83.043 93.2012L89.1693 109.006C89.2187 109.133 89.3685 109.186 89.4861 109.117Z" fill="#FF5A13"/>
<path id="Vector 18" d="M78.1679 113.094L83.1271 111.715C83.2575 111.679 83.324 111.536 83.27 111.412L76.5183 95.8992C76.4743 95.7979 76.3626 95.7448 76.2561 95.7744L76.1465 95.8048C76.041 95.8342 75.9723 95.9361 75.9846 96.045L77.8897 112.905C77.9051 113.041 78.0365 113.13 78.1679 113.094Z" fill="#FF5A13"/>
<path id="Vector 19" d="M66.5587 113.999L71.7028 113.97C71.8382 113.969 71.9394 113.848 71.9194 113.714L69.409 96.9644C69.3926 96.8552 69.2984 96.7745 69.188 96.7752L69.0745 96.7758C68.965 96.7764 68.8722 96.8568 68.856 96.9651L66.3389 113.744C66.3186 113.878 66.4224 114 66.5587 113.999Z" fill="#FF5A13"/>
<path id="Vector 20" d="M54.9991 111.704L59.9724 113.03C60.1032 113.065 60.2322 112.975 60.2475 112.841L62.1635 96.0115C62.176 95.9017 62.1061 95.799 61.9993 95.7706L61.8894 95.7412C61.7836 95.713 61.6733 95.7662 61.6295 95.8665L54.8532 111.4C54.7987 111.525 54.8674 111.669 54.9991 111.704Z" fill="#FF5A13"/>
<path id="Vector 21" d="M44.0628 106.48L48.4808 109.138C48.5968 109.208 48.7453 109.157 48.7969 109.032L55.2432 93.3887C55.2853 93.2865 55.2464 93.1684 55.1517 93.1115L55.0534 93.0524C54.9596 92.9959 54.8392 93.0165 54.7696 93.1009L44.0063 106.147C43.9196 106.252 43.9459 106.41 44.0628 106.48Z" fill="#FF5A13"/>
<path id="Vector 22" d="M35.5266 98.9741L39.2055 102.601C39.302 102.696 39.4582 102.681 39.5377 102.571L49.4352 88.8834C49.5 88.7938 49.4897 88.6699 49.4111 88.5924L49.3286 88.5111C49.2506 88.4343 49.1288 88.4261 49.0415 88.4917L35.5498 98.6365C35.4408 98.7185 35.4294 98.8783 35.5266 98.9741Z" fill="#FF5A13"/>
<path id="Vector 23" d="M28.7917 89.0965L31.3604 93.592C31.4276 93.7097 31.5822 93.7378 31.6884 93.6535L44.8898 83.1762C44.9763 83.1076 44.9999 82.9856 44.9451 82.8898L44.887 82.7881C44.8327 82.6931 44.7177 82.6523 44.6158 82.6917L28.9054 88.778C28.7782 88.8273 28.7239 88.978 28.7917 89.0965Z" fill="#FF5A13"/>
<path id="Vector 24" d="M24.8654 77.9898L26.2008 83.0006C26.2357 83.1315 26.3781 83.1986 26.5025 83.1446L41.9324 76.443C42.0336 76.399 42.0876 76.2874 42.0592 76.1809L42.0288 76.0668C42.0006 75.9611 41.8999 75.892 41.7912 75.9037L25.0571 77.7117C24.9215 77.7263 24.8302 77.8578 24.8654 77.9898Z" fill="#FF5A13"/>
</g>
<path id="Star 1" d="M68.8127 54.0891C68.8771 53.9153 69.123 53.9153 69.1873 54.0891L70.763 58.3475C72.2799 62.4468 75.512 65.6789 79.6113 67.1958L83.8697 68.7715C84.0435 68.8359 84.0435 69.0818 83.8697 69.1461L79.6113 70.7218C75.512 72.2387 72.2799 75.4708 70.763 79.5701L69.1873 83.8285C69.123 84.0023 68.8771 84.0023 68.8127 83.8285L67.237 79.5701C65.7201 75.4708 62.488 72.2387 58.3887 70.7218L54.1303 69.1461C53.9565 69.0818 53.9565 68.8359 54.1303 68.7715L58.3887 67.1958C62.488 65.6789 65.7201 62.4468 67.237 58.3475L68.8127 54.0891Z" fill="#FF5A13"/>
</g>
</g>
</g>
</g>
</svg>
