<?xml version="1.0" standalone="no"?>
<!DOCTYPE svg PUBLIC "-//W3C//DTD SVG 20010904//EN"
 "http://www.w3.org/TR/2001/REC-SVG-20010904/DTD/svg10.dtd">
<svg version="1.0" xmlns="http://www.w3.org/2000/svg"
 width="700.000000pt" height="700.000000pt" viewBox="0 0 700.000000 700.000000"
 preserveAspectRatio="xMidYMid meet">
<metadata>
Created by potrace 1.14, written by Peter Selinger 2001-2017
</metadata>
<g transform="translate(0.000000,700.000000) scale(0.100000,-0.100000)"
fill="#000000" stroke="none">
<path d="M3298 6991 c-8 -3 -14 -15 -12 -26 2 -11 6 -40 9 -65 3 -25 7 -56 10
-70 7 -38 13 -80 20 -135 4 -27 8 -57 10 -65 2 -8 7 -37 10 -65 4 -27 13 -86
20 -131 8 -45 17 -108 20 -140 4 -32 8 -61 10 -64 2 -3 6 -30 10 -60 7 -57 7
-61 25 -175 6 -38 13 -86 16 -105 5 -41 14 -104 21 -140 5 -24 9 -52 12 -77 1
-15 27 -17 36 -3 4 6 8 20 10 33 2 12 8 54 15 92 6 39 13 86 15 105 4 35 14
97 21 135 2 10 6 35 8 55 13 93 17 117 20 135 2 11 7 43 10 70 8 59 16 109 22
139 2 11 7 41 10 66 3 25 12 83 19 130 8 47 17 105 20 130 3 25 8 56 10 70 3
14 7 41 9 60 3 19 7 49 10 66 5 25 2 33 -13 37 -26 6 -384 5 -403 -2z"/>
<path d="M2675 6901 c-164 -42 -265 -73 -265 -82 0 -5 23 -64 51 -131 28 -68
70 -170 94 -228 283 -686 362 -865 381 -865 13 0 19 6 18 20 -3 44 -15 182
-19 205 -2 14 -6 61 -10 105 -3 44 -7 91 -10 105 -2 14 -7 61 -10 104 -4 43
-8 86 -10 95 -1 9 -6 54 -10 101 -4 47 -8 99 -10 115 -4 30 -14 137 -20 205
-9 104 -18 197 -21 210 -1 8 -3 27 -3 43 -1 35 -12 34 -156 -2z"/>
<path d="M4189 6928 c-3 -11 -9 -52 -14 -100 -4 -32 -8 -70 -10 -85 -2 -16 -7
-62 -10 -103 -4 -41 -9 -77 -10 -80 -2 -3 -6 -39 -10 -80 -3 -41 -8 -86 -10
-100 -2 -14 -6 -50 -10 -80 -3 -30 -7 -71 -10 -90 -8 -62 -16 -131 -20 -179
-5 -47 -14 -127 -20 -171 -22 -159 -25 -265 -6 -265 19 0 13 -12 176 365 80
184 150 344 155 355 5 11 57 128 114 260 86 198 101 241 89 248 -38 22 -400
116 -404 105z"/>
<path d="M1870 6598 c-123 -69 -289 -168 -293 -176 -3 -4 87 -124 200 -267
558 -706 623 -785 638 -779 8 4 15 10 15 15 0 8 -391 1022 -410 1064 -6 11
-22 54 -38 95 -15 41 -34 76 -42 77 -8 1 -40 -12 -70 -29z"/>
<path d="M5052 6613 c-5 -10 -46 -112 -91 -228 -46 -115 -87 -219 -92 -230
-37 -87 -299 -752 -299 -762 0 -6 5 -15 12 -19 13 -8 26 6 198 220 8 10 27 33
41 50 14 17 108 135 209 261 102 127 187 232 190 235 28 25 203 255 204 268 1
10 -37 39 -109 82 -105 63 -243 140 -251 140 -2 0 -7 -8 -12 -17z"/>
<path d="M1030 5974 c-166 -167 -160 -161 -160 -172 0 -13 1066 -772 1084
-772 9 0 16 7 16 15 0 9 -121 174 -268 368 -148 194 -319 420 -382 502 -62 83
-122 160 -134 173 l-22 22 -134 -136z"/>
<path d="M5585 5819 c-121 -160 -225 -296 -230 -302 -6 -7 -37 -48 -70 -92
-33 -44 -62 -82 -65 -85 -3 -3 -19 -23 -36 -45 -16 -22 -35 -46 -41 -55 -56
-69 -133 -177 -133 -187 0 -30 28 -20 118 45 53 38 298 212 544 386 320 227
446 322 440 331 -19 34 -277 295 -291 294 -9 0 -112 -127 -236 -290z"/>
<path d="M578 5422 c-17 -19 -140 -227 -182 -307 -14 -27 -22 -52 -18 -56 10
-9 1216 -489 1229 -489 27 0 19 30 -15 59 -61 51 -214 175 -481 391 -140 113
-295 239 -345 280 -179 146 -171 142 -188 122z"/>
<path d="M6344 5391 c-32 -26 -239 -191 -459 -366 -220 -175 -426 -339 -457
-364 -57 -45 -68 -64 -48 -76 6 -4 169 55 363 131 345 134 451 175 712 276 72
27 140 55 152 60 l22 11 -21 41 c-38 76 -179 314 -192 325 -9 7 -28 -3 -72
-38z"/>
<path d="M3481 4643 c-7 -16 -37 -95 -67 -176 -69 -190 -119 -297 -186 -394
-108 -158 -295 -318 -462 -393 -36 -17 -146 -60 -243 -96 -98 -36 -182 -69
-186 -73 -14 -13 13 -26 203 -96 102 -37 212 -81 245 -98 155 -77 311 -205
405 -332 25 -33 47 -62 50 -65 20 -20 113 -210 139 -285 68 -194 108 -290 120
-290 9 0 32 49 63 130 89 240 110 290 145 354 111 205 297 384 508 489 33 16
143 60 245 97 190 70 217 83 203 96 -4 4 -64 28 -133 54 -381 142 -466 190
-626 349 -144 146 -209 259 -318 555 -40 107 -77 196 -82 198 -6 2 -16 -9 -23
-24z"/>
<path d="M161 4551 c-29 -91 -94 -351 -90 -356 2 -2 29 -6 59 -9 30 -4 66 -9
80 -11 14 -3 52 -7 85 -10 33 -3 74 -7 90 -10 17 -3 57 -7 90 -10 33 -3 74 -8
90 -10 17 -2 57 -7 90 -10 61 -7 85 -9 165 -19 25 -3 72 -8 105 -12 33 -3 71
-7 85 -10 14 -2 52 -6 85 -10 33 -3 71 -7 85 -10 34 -5 159 -17 190 -18 18 -1
25 4 25 17 0 15 -56 43 -260 133 -143 63 -274 121 -290 129 -17 7 -50 22 -75
33 -25 11 -65 29 -90 40 -25 12 -147 66 -272 120 l-227 99 -20 -66z"/>
<path d="M6615 4528 c-99 -44 -247 -109 -330 -145 -82 -36 -168 -74 -190 -83
-22 -10 -143 -64 -270 -119 -126 -56 -234 -106 -239 -111 -7 -7 -6 -14 2 -22
9 -9 51 -7 179 7 92 9 175 19 183 20 9 2 46 6 82 9 37 4 75 8 85 10 10 2 52 7
93 11 41 4 82 8 90 10 8 1 47 6 85 9 68 7 113 12 185 21 19 2 60 7 90 10 30 3
71 8 90 10 19 3 62 7 94 11 72 6 77 9 72 37 -15 73 -101 374 -110 383 -8 8
-59 -10 -191 -68z"/>
<path d="M8 3718 c-7 -18 -8 -381 -1 -407 4 -14 11 -20 22 -17 9 3 43 8 76 12
33 3 62 8 65 9 3 2 30 6 60 10 60 7 101 13 140 20 14 2 45 7 70 10 25 4 56 8
70 10 14 2 45 7 70 10 56 8 98 14 130 20 14 2 45 7 70 10 25 3 86 12 135 20
111 17 154 24 208 30 23 3 53 7 67 10 14 3 45 7 70 10 48 6 81 28 65 44 -6 5
-30 12 -55 15 -25 3 -56 8 -70 10 -125 22 -222 37 -260 41 -25 3 -65 10 -90
15 -25 5 -81 14 -125 21 -44 6 -87 13 -97 14 -9 2 -38 7 -65 11 -26 5 -50 9
-53 9 -3 1 -30 5 -60 9 -30 4 -107 16 -170 26 -119 19 -169 27 -231 36 -25 4
-38 1 -41 -8z"/>
<path d="M6959 3716 c-2 -2 -26 -7 -54 -10 -27 -4 -108 -16 -180 -27 -71 -11
-146 -22 -165 -25 -19 -3 -46 -7 -60 -10 -14 -2 -43 -7 -65 -9 -38 -5 -141
-21 -197 -31 -15 -2 -103 -15 -195 -29 -93 -14 -213 -31 -267 -40 -55 -8 -101
-15 -103 -15 -1 0 -3 -7 -3 -15 0 -19 31 -31 101 -40 59 -7 75 -10 132 -19 20
-3 54 -8 75 -11 20 -3 48 -8 62 -10 14 -3 43 -7 65 -10 22 -4 65 -10 95 -15
78 -13 108 -18 165 -25 28 -3 57 -8 65 -10 8 -2 33 -6 55 -10 22 -3 51 -7 65
-10 14 -2 61 -9 105 -15 44 -7 87 -14 96 -15 96 -19 232 -35 238 -29 10 9 9
397 -1 417 -8 16 -20 22 -29 13z"/>
<path d="M1250 2949 c-30 -4 -84 -10 -120 -13 -36 -3 -81 -8 -100 -10 -19 -3
-60 -7 -90 -11 -30 -3 -71 -8 -90 -10 -43 -5 -116 -13 -195 -20 -33 -3 -71 -8
-85 -10 -14 -2 -54 -7 -90 -10 -36 -3 -81 -8 -100 -10 -19 -3 -58 -7 -86 -10
-155 -13 -224 -25 -224 -38 0 -24 101 -392 110 -401 7 -7 298 112 610 252 30
13 64 28 75 32 11 5 40 18 65 29 25 10 99 42 165 71 66 28 134 58 151 65 16 8
60 28 97 44 51 23 65 34 61 46 -7 17 -45 18 -154 4z"/>
<path d="M5595 2943 c-3 -9 -2 -20 2 -24 4 -4 168 -78 363 -164 195 -86 373
-165 395 -175 136 -61 454 -200 458 -200 5 0 51 163 90 320 17 67 21 97 13
101 -6 4 -42 10 -80 14 -38 4 -79 9 -90 10 -12 2 -48 7 -81 10 -33 3 -73 8
-90 10 -55 7 -120 15 -165 19 -66 8 -250 29 -345 40 -75 9 -180 21 -271 31
-65 6 -148 16 -171 20 -13 2 -24 -3 -28 -12z"/>
<path d="M1555 2417 c-27 -10 -59 -23 -70 -28 -11 -5 -114 -45 -230 -89 -115
-44 -219 -85 -230 -90 -11 -5 -163 -64 -337 -131 -175 -67 -318 -126 -318
-130 0 -9 186 -336 202 -356 6 -7 13 -13 17 -13 6 0 268 205 386 302 16 13
104 83 335 265 8 6 47 37 85 68 94 75 91 73 168 133 93 74 89 107 -8 69z"/>
<path d="M5381 2417 c-9 -12 -7 -19 11 -36 18 -16 505 -402 853 -676 21 -16
68 -54 104 -83 l66 -54 20 26 c29 36 187 322 189 342 1 21 4 20 -239 113 -166
63 -932 358 -981 378 -6 2 -16 -2 -23 -10z"/>
<path d="M1794 1868 c-87 -65 -170 -128 -184 -138 -14 -10 -124 -93 -245 -184
-121 -90 -225 -168 -230 -173 -6 -4 -63 -48 -128 -96 -64 -49 -117 -92 -117
-96 0 -4 68 -74 151 -156 147 -144 151 -147 169 -129 32 33 770 1058 770 1070
0 33 -40 11 -186 -98z"/>
<path d="M5040 1964 c0 -9 76 -120 169 -247 360 -496 540 -742 548 -752 5 -5
21 -27 35 -49 l27 -39 57 54 c100 93 244 244 244 254 0 12 -28 34 -440 339
-146 108 -272 202 -280 209 -89 71 -335 247 -346 247 -8 0 -14 -7 -14 -16z"/>
<path d="M4602 1637 c-9 -10 8 -64 68 -223 44 -115 85 -218 90 -229 5 -11 77
-195 159 -409 83 -214 153 -391 156 -394 3 -3 22 4 43 15 20 12 53 30 72 41
78 43 260 154 260 159 0 2 -48 65 -107 140 -60 74 -162 204 -228 288 -353 449
-477 604 -489 614 -10 8 -16 8 -24 -2z"/>
<path d="M2143 1322 c-139 -169 -263 -319 -275 -333 -13 -15 -79 -95 -148
-179 -69 -84 -135 -164 -147 -179 -13 -14 -23 -28 -23 -31 0 -10 321 -203 357
-214 16 -5 24 6 53 76 18 46 44 106 57 135 13 28 23 58 23 65 0 8 4 18 9 23 4
6 20 39 34 75 36 92 126 309 142 345 8 17 50 120 95 230 44 110 88 215 96 233
17 36 13 62 -8 62 -7 0 -127 -139 -265 -308z"/>
<path d="M2918 1388 c-9 -18 -39 -87 -68 -153 -28 -66 -58 -133 -65 -150 -17
-38 -108 -246 -190 -435 -34 -80 -72 -165 -83 -190 -87 -191 -114 -263 -100
-275 13 -12 359 -105 391 -105 9 0 17 6 17 13 0 7 4 48 10 92 5 44 12 105 15
135 3 30 10 89 15 130 5 41 12 100 15 130 3 30 8 71 10 90 2 19 7 58 10 85 3
28 7 64 9 80 2 17 7 62 11 100 4 39 9 77 10 85 2 8 6 44 10 80 3 36 8 76 10
90 6 42 18 163 19 195 1 43 -27 45 -46 3z"/>
<path d="M4053 1408 c-5 -7 -9 -17 -8 -23 1 -5 5 -46 9 -90 5 -44 9 -87 11
-95 1 -8 6 -46 9 -85 4 -38 9 -77 11 -85 2 -8 7 -46 10 -85 3 -38 8 -83 10
-100 3 -16 7 -50 9 -75 3 -25 8 -67 11 -95 7 -61 13 -112 20 -185 3 -30 8 -71
10 -90 6 -48 15 -119 30 -259 3 -30 8 -58 11 -63 6 -9 12 -8 182 38 202 55
232 65 232 76 0 9 -81 199 -145 343 -20 44 -128 294 -217 500 -17 39 -41 94
-54 123 -13 29 -36 80 -50 115 -64 152 -70 162 -91 135z"/>
<path d="M3489 1333 c-3 -28 -17 -126 -23 -163 -10 -59 -36 -229 -41 -270 -3
-25 -9 -70 -15 -100 -5 -30 -12 -75 -15 -100 -3 -25 -10 -70 -15 -100 -5 -30
-12 -75 -15 -100 -3 -25 -10 -71 -16 -102 -5 -32 -12 -74 -14 -95 -3 -21 -13
-94 -24 -163 -12 -80 -16 -127 -9 -131 8 -5 372 -5 416 0 8 0 11 11 7 29 -2
15 -16 104 -30 197 -14 94 -28 186 -31 205 -3 19 -7 51 -9 70 -3 19 -7 46 -10
60 -3 14 -7 41 -10 60 -11 89 -15 117 -20 140 -3 14 -7 41 -9 60 -3 19 -17
112 -31 205 -14 94 -29 190 -32 215 -3 25 -7 52 -9 60 -1 8 -3 18 -3 23 -1 4
-10 7 -21 7 -11 0 -20 -3 -21 -7z"/>
</g>
</svg>
